<?xml version="1.0" encoding="UTF-8"?><svg id="Camada_2" xmlns="http://www.w3.org/2000/svg" viewBox="0 0 35 35"><defs><style>.cls-1{fill:#fff;}</style></defs><g id="Camada_1-2"><path class="cls-1" d="m35,17.5C35,7.48,26.53-.6,16.37.04,7.82.57.8,7.43.07,15.96c-.83,9.68,6.28,17.93,15.53,18.93v.11h3.8v-.11c8.76-.95,15.6-8.39,15.6-17.39Zm-15.6,14.32V13.32c0-1.05-.85-1.9-1.9-1.9h0c-1.05,0-1.9.85-1.9,1.9v18.5c-7.49-.99-13.2-7.73-12.5-15.63.6-6.76,5.99-12.29,12.73-13.05,8.71-.98,16.13,5.84,16.13,14.36,0,7.32-5.48,13.38-12.55,14.32Z"/></g></svg>