<?xml version="1.0" encoding="UTF-8"?><svg id="Camada_2" xmlns="http://www.w3.org/2000/svg" viewBox="0 0 151.38 53.9"><defs><style>.cls-1{fill:#fff;}.cls-2{fill:#76bbff;}</style></defs><g id="Camada_1-2"><path class="cls-1" d="m64.88,19.82c-1.26,0-2.39-.29-3.38-.87-.99-.58-1.77-1.37-2.34-2.38-.57-1.01-.85-2.15-.85-3.43s.28-2.44.85-3.44c.57-1,1.35-1.79,2.34-2.36.99-.57,2.12-.85,3.38-.85s2.38.28,3.37.85c.98.57,1.76,1.35,2.33,2.36.57,1,.85,2.15.85,3.44s-.28,2.42-.85,3.43-1.35,1.8-2.33,2.38c-.98.58-2.11.87-3.37.87Zm0-3.42c.57,0,1.05-.12,1.45-.38.4-.25.69-.62.89-1.11.2-.49.3-1.08.3-1.77s-.1-1.3-.3-1.77c-.2-.47-.5-.84-.89-1.09-.4-.25-.88-.38-1.45-.38s-1.05.13-1.45.38c-.4.25-.7.61-.91,1.09-.21.48-.31,1.07-.31,1.77s.1,1.28.31,1.77c.21.49.51.86.91,1.11.4.25.88.38,1.45.38Z"/><path class="cls-1" d="m73.63,24.81V6.77h3.88v3.16l-.8.78c.22-1.21.57-2.11,1.02-2.71.46-.6.97-1,1.53-1.2.56-.21,1.1-.31,1.62-.31,1.1,0,2.05.29,2.82.87.78.58,1.37,1.37,1.77,2.38.41,1.01.61,2.15.61,3.43,0,1.42-.23,2.62-.7,3.61-.47.99-1.09,1.75-1.88,2.27-.79.52-1.66.78-2.63.78-.59,0-1.17-.13-1.75-.39-.58-.26-1.07-.69-1.49-1.28-.41-.6-.69-1.39-.83-2.39l.7.57v8.49h-3.88Zm6.03-8.57c.53,0,.99-.12,1.36-.36.37-.24.66-.6.85-1.06.2-.47.3-1.02.3-1.66s-.1-1.22-.3-1.68c-.2-.47-.48-.82-.85-1.06-.37-.24-.82-.36-1.36-.36s-.97.13-1.35.38c-.38.25-.67.6-.87,1.06-.2.46-.3,1.01-.3,1.67s.1,1.19.3,1.64c.2.46.49.81.87,1.06.38.25.83.38,1.35.38Z"/><path class="cls-1" d="m94.19,19.82c-1.17,0-2.17-.19-3-.56-.83-.37-1.5-.87-2.02-1.5-.52-.63-.89-1.34-1.13-2.12-.23-.79-.35-1.59-.35-2.42s.12-1.59.35-2.38c.23-.79.6-1.52,1.09-2.17.49-.66,1.14-1.18,1.94-1.58.8-.4,1.77-.6,2.91-.6,1,0,1.88.17,2.64.5.76.34,1.39.81,1.9,1.41.51.6.89,1.32,1.15,2.15.26.83.39,1.73.39,2.72,0,.17,0,.35-.01.54,0,.19-.03.42-.06.7h-8.39c.1.69.43,1.19.97,1.5.54.31,1.17.47,1.88.47.62,0,1.26-.11,1.92-.32.66-.22,1.23-.51,1.71-.89l1.66,2.74c-.67.45-1.29.81-1.84,1.07-.55.27-1.12.46-1.7.57-.58.11-1.25.17-2.01.17Zm2.05-7.25c.03-.14.06-.28.09-.41.03-.14.04-.27.04-.39,0-.33-.06-.62-.18-.87-.12-.25-.29-.46-.5-.63-.22-.17-.46-.31-.74-.4s-.57-.14-.88-.14c-.57,0-1.03.1-1.39.31-.35.21-.62.46-.79.75-.17.29-.29.58-.34.85h5.98l-1.29.93Z"/><path class="cls-1" d="m102.32,19.53V6.77h3.91v3h-.52c.21-.86.54-1.53.98-2.01s.95-.81,1.51-1c.56-.19,1.11-.28,1.64-.28,1.48,0,2.64.41,3.47,1.23.83.82,1.24,1.93,1.24,3.33v8.49h-3.91v-7.04c0-.92-.16-1.58-.48-1.99-.32-.41-.83-.62-1.54-.62-.55,0-1.01.13-1.36.39-.35.26-.62.66-.79,1.2-.17.54-.26,1.25-.26,2.11v5.95h-3.91Z"/><path class="cls-1" d="m66.15,42.13c-.52,0-1.06-.1-1.62-.31-.56-.21-1.07-.61-1.53-1.22-.46-.6-.8-1.5-1.02-2.69l.8.78v3.16h-3.88v-18.05h3.88v8.49l-.7.57c.14-1.02.41-1.82.83-2.41s.91-1.01,1.49-1.27c.58-.26,1.16-.39,1.75-.39.97,0,1.84.26,2.63.78.79.52,1.41,1.27,1.88,2.25s.7,2.19.7,3.62c0,1.28-.2,2.42-.61,3.43-.41,1.01-1,1.8-1.77,2.38-.78.58-1.72.87-2.82.87Zm-1.22-3.57c.53,0,.99-.12,1.36-.36.37-.24.66-.6.85-1.06.2-.47.3-1.03.3-1.68s-.1-1.21-.3-1.67c-.2-.46-.48-.81-.85-1.05-.37-.24-.82-.36-1.36-.36s-.97.13-1.35.38c-.38.25-.67.6-.87,1.06-.2.46-.3,1.01-.3,1.64s.1,1.19.3,1.66c.2.47.49.82.87,1.07.38.25.83.38,1.35.38Z"/><path class="cls-1" d="m77.98,42.13c-.92,0-1.75-.18-2.5-.53-.75-.35-1.35-.86-1.79-1.51-.44-.66-.66-1.42-.66-2.28,0-.74.16-1.39.48-1.94.32-.55.75-.98,1.28-1.27.4-.22.85-.39,1.35-.49.5-.1,1.04-.16,1.6-.16h3.83v2.87h-3.26c-.21,0-.39.02-.56.05-.16.04-.31.1-.43.18-.12.09-.22.19-.29.32-.07.13-.1.27-.1.43,0,.36.15.65.45.87.3.22.7.32,1.2.32s.93-.1,1.33-.3c.41-.2.73-.47.97-.82.24-.34.36-.74.36-1.19l.83,2.2c-.33.88-.72,1.55-1.18,2.02-.46.47-.94.79-1.45.96-.51.17-1.01.26-1.49.26Zm3.6-.28l-.31-1.5v-6.6c0-.6-.22-1.04-.65-1.29-.43-.26-.97-.39-1.61-.39-.67,0-1.39.13-2.15.38-.76.25-1.4.56-1.92.92l-1.66-2.74c1.02-.67,2.01-1.14,2.96-1.41s1.99-.4,3.09-.4c1.81,0,3.23.44,4.26,1.33,1.03.89,1.54,2.09,1.54,3.61v8.1h-3.57Z"/><path class="cls-1" d="m87.79,41.85v-12.76h3.91v3h-.52c.21-.86.54-1.53.98-2.01s.95-.81,1.51-1c.56-.19,1.11-.28,1.64-.28,1.48,0,2.64.41,3.47,1.23.83.82,1.24,1.93,1.24,3.33v8.49h-3.91v-7.04c0-.92-.16-1.58-.48-1.99-.32-.41-.83-.62-1.54-.62-.55,0-1.01.13-1.36.39-.35.26-.62.66-.79,1.2-.17.54-.26,1.25-.26,2.11v5.95h-3.91Z"/><path class="cls-1" d="m102.71,41.85v-18.05h3.91v18.05h-3.91Zm8.6,0l-3.31-5.33-1.66,1.94v-4.84l4.22-4.53h4.95l-4.66,4.82,5.1,7.95h-4.63Z"/><path class="cls-1" d="m117.62,27.33v-3.52h3.99v3.52h-3.99Zm.03,14.52v-12.76h3.91v12.76h-3.91Z"/><path class="cls-1" d="m124.35,41.85v-12.76h3.91v3h-.52c.21-.86.54-1.53.98-2.01s.95-.81,1.51-1c.56-.19,1.11-.28,1.64-.28,1.48,0,2.64.41,3.47,1.23.83.82,1.24,1.93,1.24,3.33v8.49h-3.91v-7.04c0-.92-.16-1.58-.48-1.99-.32-.41-.83-.62-1.54-.62-.55,0-1.01.13-1.36.39-.35.26-.62.66-.79,1.2-.17.54-.26,1.25-.26,2.11v5.95h-3.91Z"/><path class="cls-1" d="m144.8,47.42c-1.95,0-3.48-.34-4.6-1.02-1.11-.68-1.67-1.61-1.67-2.78,0-.12,0-.25.03-.4.02-.15.04-.3.08-.45l3.86-2.17.83,1.14-1.5,1.84s-.03.06-.03.09v.09c0,.33.26.6.79.8.53.21,1.26.31,2.21.31.76,0,1.31-.09,1.66-.27.35-.18.52-.41.52-.69,0-.14-.04-.25-.12-.34-.08-.09-.22-.16-.44-.23s-.52-.13-.92-.19c-.4-.06-.91-.13-1.53-.19-.79-.09-1.58-.25-2.36-.48-.78-.23-1.42-.59-1.94-1.06-.52-.47-.78-1.11-.78-1.9,0-.73.25-1.39.74-1.99.49-.6,1.14-1.1,1.95-1.48l1.63,1.48c-.36.03-.66.16-.89.36-.23.21-.35.45-.35.73,0,.24.11.43.32.57.22.14.52.24.92.31.4.07.86.14,1.4.21.93.1,1.78.22,2.55.36.77.14,1.43.33,1.98.58.55.25.98.6,1.27,1.04.29.44.44,1.01.44,1.72,0,1.31-.52,2.31-1.55,3-1.04.69-2.54,1.04-4.5,1.04Zm-.23-8.85c-1.12,0-2.1-.21-2.94-.63-.84-.42-1.49-1-1.95-1.72-.47-.73-.7-1.55-.7-2.49,0-1,.25-1.87.75-2.6.5-.73,1.17-1.3,2.01-1.71.84-.41,1.74-.61,2.71-.61s1.87.2,2.71.61c.84.41,1.51.99,2.03,1.75.52.76.78,1.66.78,2.69,0,.95-.22,1.78-.67,2.49-.45.71-1.08,1.26-1.89,1.64-.81.39-1.75.58-2.82.58Zm-.08-3.06c.57,0,.98-.18,1.22-.53.24-.35.36-.77.36-1.26s-.14-.91-.41-1.22c-.28-.31-.66-.47-1.17-.47s-.92.16-1.19.47c-.28.31-.41.72-.41,1.22s.12.9.36,1.26c.24.35.66.53,1.24.53Zm4.58-3.52l-2.82-1.79,3.13-2.46,1.99,2.41-2.3,1.84Z"/><path class="cls-2" d="m44.44,29.73c-.5-.83-1.1-1.59-1.82-2.28-1.79-1.73-2.22-4.51-.96-6.65.15-.25.29-.51.42-.77.93-1.86,1.39-3.97,1.39-6.34,0-4.28-1.57-7.63-4.72-10.05-3.15-2.42-7.48-3.63-12.99-3.63h-1.26c-2.99,0-5.41,2.42-5.41,5.41v.31c0,2.99,2.42,5.41,5.41,5.41h1.26c1.8,0,3.18.39,4.14,1.16.95.77,1.43,1.88,1.43,3.33,0,1.6-.49,2.85-1.47,3.75-.98.9-2.35,1.35-4.1,1.35H5.41c-2.99,0-5.41,2.42-5.41,5.41h0c0,2.99,2.42,5.41,5.41,5.41h22.21c2.11,0,3.75.49,4.91,1.47,1.16.98,1.74,2.37,1.74,4.18,0,3.71-2.22,5.57-6.65,5.57h-15.34c-2.99,0-5.41,2.42-5.41,5.41v.31c0,2.99,2.42,5.41,5.41,5.41h16.34c5.52,0,9.86-1.44,13.03-4.33,3.17-2.89,4.76-6.83,4.76-11.83,0-3.14-.66-5.81-1.97-8Z"/></g></svg>